<?xml version="1.0" encoding="UTF-8" standalone="no"?>
<svg
   id="svg812"
   viewBox="0 0 198.55 198.55"
   version="1.1"
   width="198.55"
   height="198.55"
   xmlns="http://www.w3.org/2000/svg"
   xmlns:svg="http://www.w3.org/2000/svg"
   xmlns:rdf="http://www.w3.org/1999/02/22-rdf-syntax-ns#"
   xmlns:cc="http://creativecommons.org/ns#"
   xmlns:dc="http://purl.org/dc/elements/1.1/">
  <title
     id="title954">GeoNature logo</title>
  <defs
     id="defs7">
  </defs>
  <g
     id="g2826">
    <path
       d="m 99.250001,162.55001 a 63.250001,63.275004 0 0 1 0,-126.550008 h 0.3 A 63.16,63.184967 0 0 1 162.55,99.325024 63.42,63.44507 0 0 1 99.250001,162.55001 Z m 0,-115.54566 a 52.250001,52.270655 0 0 0 0,104.54131 h 0.1 a 52.250097,52.270751 0 0 0 0.2,-104.54131 z"
       id="path53" />
    <path
       d="m 76.750001,86.9 c -2.2,-1.9 -5.4,-2.5 -9.5,-1.7 a 22.47,22.47 0 0 0 2.1,12.5 c 2.4,4.4 10,3 12.9,2.3 a 14.83,14.83 0 0 0 -5.5,-13.1 z"
       id="path41" />
    <path
       d="m 55.050001,71.3 c 5.2,1.6 8.3,8.2 9.1,14.8 1,-1.8 1.9,-3.7 2.8,-5.6 -0.1,0.2 -0.2,0.5 -0.3,0.7 5.3,-1 9.5,-0.1 12.6,2.6 a 18.64,18.64 0 0 1 6.9,16.5 c 13.4,-5.8 25.299999,16.1 27.399999,9.1 4.3,-14.2 -12.3,-17.2 -12.3,-17.2 a 4.14,4.14 0 0 1 1.9,-0.5 3.88,3.88 0 0 0 3.5,-4.1 c 0,-0.2 -0.1,-0.5 -0.1,-0.7 a 37.23,37.23 0 0 0 -3.3,-7.7 c -2.1,-3.9 -7.399999,-1.6 -11.999999,1.4 a 2,2 0 0 1 -2.7,-0.6 2.25,2.25 0 0 1 -0.2,-1.8 c 1.2,-3.2 1.9,-6.6 0.4,-9.2 -5.2,-9.2 -21.5,-12.3 -17.8,-5.4 1.9,3.4 -0.6,9.9 -3.7,16.5 1,-2 1.9,-4 2.6,-5.8 -11.1,-24.7 -22.6,-5.3 -14.8,-3 z"
       id="path43" />
    <path
       d="m 86.750001,118 c 3.7,6.8 14.899999,7.4 10.2,-5.5 -2.5,-6.9 -8.4,-9.4 -14.3,-10.4 -3.2,1.7 -5.7,3 -7.7,4 6.6,2.2 10.2,8.9 11.8,11.9 z"
       id="path45" />
    <path
       id="path47"
       d="m 37.922271,85.707812 c -0.11995,-0.0011 -0.24016,-5.11e-4 -0.36133,0.002 a 63.25,63.25 0 0 0 -0.72852,3.30664 63.25,63.25 0 0 0 -0.61133,5.625 c 0.30316,-0.51117 0.54206,-1.039816 0.72852,-1.640625 a 12.7,12.7 0 0 0 0.5,-3.40039 h 0.0996 c 2.54189,-0.09777 5.66331,0.802577 9.53906,7.755859 0.0886,0.158943 0.17233,0.277985 0.26172,0.443359 l 15.90039,29.500005 a 16.88,16.88 0 0 0 -9.48047,-2.38086 16.88,16.88 0 0 0 -8.11914,2.38086 2,2 0 1 0 1.59961,3.59961 0.35,0.35 0 0 0 0.19922,-0.0996 c 3.25752,-1.75849 6.21545,-2.23298 8.89844,-1.85547 6.62401,0.93202 11.5288,7.20621 14.80273,13.25586 l 0.83984,1.54297 a 52.25,52.25 0 0 0 3.81055,2.19922 52.25,52.25 0 0 0 2.37891,1.02734 l -0.83007,-1.57037 a 10.55,10.55 0 0 1 3.90039,-13.09961 2,2 0 1 0 -1.59961,-3.59961 0.35,0.35 0 0 0 -0.20117,0.0996 13.93,13.93 0 0 0 -6.40039,8.59961 L 60.750391,114.7 a 6.76,6.76 0 0 1 0.5,-8.19922 9.88,9.88 0 0 0 3.90039,2.09961 c 2.9,0.8 4.89844,0.2 12.89844,-4 -4.3,0.3 -9.59922,-0.39961 -12.19922,-5.099609 a 24.44,24.44 0 0 1 -2.69922,-11.601562 61.25,61.25 0 0 0 -4.20117,9 10,10 0 0 0 0,6.400391 1,1 0 0 0 -0.5,0.40039 10,10 0 0 0 -1.90039,3.09961 l -5.89844,-10.900391 c -0.97587,-1.801612 -1.96388,-3.351993 -2.98047,-4.66211 -2.89725,-3.73381 -6.02981,-5.494601 -9.74804,-5.529297 z m 40.25781,61.261718 a 52.25,52.25 0 0 1 -2.37891,-1.02734 52.25,52.25 0 0 1 -3.81055,-2.19922 l 2.85938,5.25781 a 1.85,1.85 0 0 0 2.59961,0.69922 2,2 0 0 0 0.80078,-2.59961 z" />
    <path
       d="M 194.35,69"
       id="path51" />
    <path
       d="m 198.55001,60.3 c 0,0 -9.2,6.3 -32.5,6.9 a 25,25 0 0 0 13.6,-20.7 c 0,0 5.2,-0.1 6.5,-16.3 0,0 -11.1,21.9 -42.4,29.4 0,0 -11.9,-20.7 -28,-4.3 l -0.1,0.1 c -1.5,1.4 -23.799999,21.4 -23.799999,21.4 l 0.2,-0.2 0.1,-0.1 20.599999,-14.2 c 0,0 3.8,-2 8.9,2.7 2.6,2.4 5.4,6.5 7.8,13.3 0,0 -3.7,20.4 16.4,32.9 9.5,9 -3,23.7 -14.8,38.3 0,0 41.2,-17.8 26.5,-70.8 -0.1,0 19.7,2.2 41,-18.4 z m -79.4,-1 a 2,2 0 1 1 2,-2 2,2 0 0 1 -2,2 z"
       id="path55" />
  </g>
  <metadata
     id="metadata875">
    <rdf:RDF>
      <cc:Work
         rdf:about="">
        <dc:title>GeoNature logo</dc:title>
      </cc:Work>
    </rdf:RDF>
  </metadata>
</svg>
