<?xml version="1.0" encoding="UTF-8" standalone="no"?>
<svg xmlns:dc="http://purl.org/dc/elements/1.1/"
     xmlns:cc="http://creativecommons.org/ns#"
     xmlns:rdf="http://www.w3.org/1999/02/22-rdf-syntax-ns#"
     xmlns:svg="http://www.w3.org/2000/svg"
     xmlns="http://www.w3.org/2000/svg"
     id="svg834"
     version="1.1"
     viewBox="0 0 48 48"
     height="48"
     width="48">
    <defs id="defs828" />
    <metadata id="metadata831">
        <rdf:RDF>
            <cc:Work rdf:about="">
                <dc:format>image/svg+xml</dc:format>
                <dc:type rdf:resource="http://purl.org/dc/dcmitype/StillImage" />
                <dc:title>Sync</dc:title>
            </cc:Work>
        </rdf:RDF>
    </metadata>
    <path d="m 24,4 c -11.0455,0 -20,8.954 -20,20 h 5 c 0,-8.2845 6.7155001,-15 15,-15 4.142,0 7.891946,1.67906 10.606446,4.39356 L 29,19 h 15 v -15 l -5.858398,5.8584 C 34.522602,6.23889 29.523,4 24,4 Z m 15,20 c 0,8.2845 -6.7155,15 -15,15 -4.142,0 -7.891945,-1.67905 -10.606445,-4.39355 L 19,29 H 4 v 15 L 9.8583984,38.1416 C 13.477399,41.76109 18.477,44 24,44 c 11.0455,0 20,-8.954 20,-20 z"
          style="fill:#000000"
          id="path4827" />
    <path id="path814"
          d="m24 16c-4.4 0-8 3.6-8 8s3.6 8 8 8 8-3.6 8-8-3.6-8-8-8zm-1.65 1.5 1.4 0.75-0.2 1.65 1.05-0.55 0.5-1 0.35 1 1.6 0.3 0.6 0.8 1.3 0.2-0.15 0.85 0.9 0.45-0.2 1.2 0.75 1-0.2 0.95-1.05 0.2v0.65l0.7 0.75-0.8 0.65-0.1 0.75-1.35-0.2 0.5 1.35-1.55 0.25-0.85 0.85-1.6-0.35-1.15 0.5-2.45-1.25-0.95-1.9-0.1 1.35-0.7-1.35 0.75-1.15 1.2 0.8 1 0.2-0.05 0.65 1.4 0.3 1.55-0.8 0.85 0.45 0.35-1 1.25-0.25 0.6-0.95 0.25-1.3-0.85-2.05-1.3-0.6-0.45-1.2-0.55 1.35-1.1-0.65-0.65 1.55 0.65 2 1.1-0.25 0.3-0.85-1.1-0.7 1-0.45 1.25 0.75v1.7l-1.4 1.25-2.15-0.05-0.95-0.75v-1.4l-0.6-0.9-0.85-0.35 0.9-0.7v-1.05l1 0.1 0.8-0.85-0.05-1.5zm-1.65 1.5 0.55 0.45-0.1 0.4-0.95-0.15zm-2.55 2.85 0.4 0.45-0.7 0.05-0.05-0.5zm-0.05 1.65 1 1.8-1.1 0.35-0.15-1.3zm10.9 5.15 0.4 0.4-0.4 0.4-0.4-0.4z"
          style="fill:#000000" />
</svg>
