<?xml version="1.0" encoding="UTF-8" standalone="no"?>
<svg xmlns:dc="http://purl.org/dc/elements/1.1/"
    xmlns:cc="http://creativecommons.org/ns#"
    xmlns:rdf="http://www.w3.org/1999/02/22-rdf-syntax-ns#"
    xmlns:svg="http://www.w3.org/2000/svg"
    xmlns="http://www.w3.org/2000/svg"
    xmlns:xlink="http://www.w3.org/1999/xlink"
    id="svg6"
    y="0px"
    x="0px"
    xml:space="preserve"
    version="1.1"
    viewBox="0 0 108 108"
    width="108"
    height="108">
  <defs
     id="defs4">
    <linearGradient
       id="linearGradient1673">
      <stop
         id="stop1669"
         offset="0"
         style="stop-color:#000000;stop-opacity:1;" />
      <stop
         id="stop1671"
         offset="1"
         style="stop-color:#000000;stop-opacity:0;" />
    </linearGradient>
    <linearGradient
       gradientTransform="translate(4,3.998047)"
       gradientUnits="userSpaceOnUse"
       y2="129.87526"
       x2="133.81996"
       y1="32.471302"
       x1="36.416"
       id="linearGradient1675"
       xlink:href="#linearGradient1673" />
  </defs>
  <metadata
     id="metadata7">
    <rdf:RDF>
      <cc:Work
         rdf:about="">
        <dc:format>image/svg+xml</dc:format>
        <dc:type
           rdf:resource="http://purl.org/dc/dcmitype/StillImage" />
        <dc:title>Sync launcher icon</dc:title>
      </cc:Work>
    </rdf:RDF>
  </metadata>
  <path
     style="fill:#000000;fill-opacity:0.19607843"
     d="m 55,26 v -1 h 53 v 1 z"
     id="banner_shadow" />
  <path
     style="fill:#545473"
     d="M 54,25 V 0 h 54 v 25 z"
     id="banner" />
  <g
     id="dev">
    <path
       style="fill:#ffffff"
       d="m 62.117209,10.127604 v 4.744791 h 0.71875 q 1.229166,0 1.875,-0.609375 0.651041,-0.609375 0.651041,-1.770833 0,-1.15625 -0.645833,-1.760416 -0.645833,-0.604167 -1.880208,-0.604167 z M 60.112,8.6119788 h 2.114584 q 1.770833,0 2.635416,0.2552084 0.869792,0.25 1.489584,0.8541667 0.546875,0.5260421 0.8125,1.2135421 0.265625,0.6875 0.265625,1.557291 0,0.880208 -0.265625,1.572917 -0.265625,0.6875 -0.8125,1.213541 -0.625,0.604167 -1.5,0.859376 -0.875,0.25 -2.625,0.25 H 60.112 Z"
       id="d" />
    <path
       style="fill:#ffffff"
       d="m 68.966167,8.6119788 h 5.411459 v 1.5156252 h -3.40625 v 1.447917 h 3.203125 v 1.515624 h -3.203125 v 1.78125 h 3.520833 v 1.515626 h -5.526042 z"
       id="e" />
    <path
       style="fill:#ffffff"
       d="m 75.330751,8.6119788 h 2.015625 l 2.0625,5.7395832 2.057292,-5.7395832 h 2.015625 l -2.880209,7.7760422 h -2.390625 z"
       id="v" />
  </g>
  <path
     id="path848"
     d="m 54.001953,14 c -22.091,0 -40,17.908 -40,40 3.251918,3.697047 7.307713,6.754076 10.136719,10 H 14.001953 L 14,93.998047 114,193.99805 l 80,-80 L 94.001953,14 82.285156,25.716797 C 81.84515,25.27673 81.393623,24.84896 80.909653,24.406786 80.425683,23.964612 79.944032,23.547999 79.44917,23.138748 78.954309,22.729496 78.451716,22.336996 77.941429,21.9551 69.86267,17.18374 61.748479,14.09677 54.001953,14 Z"
     style="opacity:0.2;fill:url(#linearGradient1675);fill-opacity:1" />
  <path
     id="path4827"
     d="M 54,14 C 31.909,14 14,31.908 14,54 h 10 c 0,-16.569 13.431,-30 30,-30 8.284,0 15.783891,3.358109 21.212891,8.787109 L 64,44 H 94 V 14 L 82.283203,25.716797 C 75.045203,18.477797 65.046,14 54,14 Z M 84,54 C 84,70.569 70.569,84 54,84 45.716,84 38.216109,80.641891 32.787109,75.212891 L 44,64 H 14 V 94 L 25.716797,82.283203 C 32.954797,89.522203 42.954,94 54,94 76.091,94 94,76.092 94,54 Z"
     style="fill:#000000;fill-opacity:1" />
  <path
     style="opacity:1;fill:#000000;fill-opacity:1;stroke:none;stroke-width:1.99999988;stroke-linecap:round;stroke-linejoin:miter;stroke-miterlimit:1.41420996;stroke-dasharray:none;stroke-dashoffset:0;stroke-opacity:1;paint-order:stroke markers fill"
     d="m 54,38 c -8.8,0 -16,7.2 -16,16 0,8.8 7.2,16 16,16 8.8,0 16,-7.2 16,-16 0,-8.8 -7.2,-16 -16,-16 z m -3.3,3 2.8,1.5 -0.4,3.3 2.1,-1.1 1,-2 0.7,2 3.2,0.6 1.2,1.6 2.6,0.4 -0.3,1.7 1.8,0.9 -0.4,2.4 1.5,2 -0.4,1.9 -2.1,0.4 v 1.3 l 1.4,1.5 -1.6,1.3 -0.2,1.5 -2.7,-0.4 1,2.7 -3.1,0.5 -1.7,1.7 -3.2,-0.7 -2.3,1 -4.9,-2.5 -1.9,-3.8 -0.2,2.7 -1.4,-2.7 1.5,-2.3 2.4,1.6 2,0.4 -0.1,1.3 2.8,0.6 3.1,-1.6 1.7,0.9 0.7,-2 2.5,-0.5 1.2,-1.9 0.5,-2.6 -1.7,-4.1 -2.6,-1.2 -0.9,-2.4 -1.1,2.7 -2.2,-1.3 -1.3,3.1 1.3,4 2.2,-0.5 0.6,-1.7 -2.2,-1.4 2,-0.9 2.5,1.5 v 3.4 L 55.3,58.3 51,58.2 49.1,56.7 V 53.9 L 47.9,52.1 46.2,51.4 48,50 v -2.1 l 2,0.2 1.6,-1.7 -0.1,-3 z m -3.3,3 1.1,0.9 -0.2,0.8 -1.9,-0.3 z m -5.1,5.7 0.8,0.9 -1.4,0.1 -0.1,-1 z m -0.1,3.3 2,3.6 -2.2,0.7 -0.3,-2.6 z M 64,63.3 64.8,64.1 64,64.9 63.2,64.1 Z"
     id="path828" />
</svg>
